<svg width="233" height="65" viewBox="0 0 233 65" fill="none" xmlns="http://www.w3.org/2000/svg">
<path d="M39.8 34.1H62.55V44.75H39.8V34.1ZM65.7184 22H97.4684C100.402 22 102.768 22.85 104.568 24.55C106.368 26.2167 107.268 28.4833 107.268 31.35C107.268 33.05 106.852 34.6333 106.018 36.1C105.185 37.5667 104.035 38.7333 102.568 39.6C101.102 40.4667 99.435 40.9 97.5684 40.9L82.3184 40.95V57H65.7184V22ZM84.0684 38.05C85.2684 38.05 86.3684 37.7667 87.3684 37.2C88.4017 36.6 89.2017 35.8 89.7684 34.8C90.3684 33.7667 90.6684 32.6667 90.6684 31.5C90.6684 30.3 90.3684 29.2 89.7684 28.2C89.2017 27.1667 88.4017 26.35 87.3684 25.75C86.3684 25.15 85.2684 24.85 84.0684 24.85H82.3184V38.05H84.0684ZM109.713 22H126.713V37.65H137.763V22H154.763V57H137.763V41H126.713V57H109.713V22ZM167.722 40.95L156.872 22H176.472L183.672 36.3L190.672 22H194.522L185.222 40.95V57H167.722V40.95ZM219.853 34.55C223.819 35.6167 226.786 37.0333 228.753 38.8C230.719 40.5333 231.703 42.8 231.703 45.6C231.703 47.8333 231.003 49.8333 229.603 51.6C228.203 53.3667 226.136 54.75 223.403 55.75C220.703 56.75 217.419 57.25 213.553 57.25C208.986 57.25 204.953 56.6667 201.453 55.5C197.986 54.3 195.269 52.85 193.303 51.15L194.953 48.9C196.686 50.2667 198.869 51.4333 201.503 52.4C204.136 53.3667 206.969 53.85 210.003 53.85C211.969 53.85 213.453 53.5667 214.453 53C215.486 52.4333 216.003 51.6333 216.003 50.6C216.003 48.8 214.219 47.4 210.653 46.4L204.153 44.5C200.619 43.4333 197.886 41.95 195.953 40.05C194.053 38.15 193.103 35.9 193.103 33.3C193.103 31.1333 193.786 29.1667 195.153 27.4C196.519 25.6333 198.503 24.25 201.103 23.25C203.736 22.2167 206.886 21.7 210.553 21.7C214.053 21.7 217.269 22.1 220.203 22.9C223.169 23.7 225.586 24.6667 227.453 25.8L225.803 28.1C224.236 27.2 222.353 26.4333 220.153 25.8C217.986 25.1667 215.703 24.85 213.303 24.85C211.203 24.85 209.586 25.1833 208.453 25.85C207.353 26.4833 206.803 27.3667 206.803 28.5C206.803 29.3667 207.219 30.1333 208.053 30.8C208.886 31.4333 210.469 32.0667 212.803 32.7L219.853 34.55Z" fill="white"/>
<path d="M0.4 22H36.75V24.95H18V37.9H27.2V40.9H18V54H36.75V57H0.4V22Z" fill="white"/>
</svg>
